<?xml version="1.0" encoding="UTF-8"?>
<!DOCTYPE svg PUBLIC "-//W3C//DTD SVG 1.1//EN" "http://www.w3.org/Graphics/SVG/1.1/DTD/svg11.dtd">
<svg xmlns="http://www.w3.org/2000/svg" version="1.1" width="512px" height="512px" style="shape-rendering:geometricPrecision; text-rendering:geometricPrecision; image-rendering:optimizeQuality; fill-rule:evenodd; clip-rule:evenodd" xmlns:xlink="http://www.w3.org/1999/xlink">
<g><path style="opacity:1" fill="#1d1d1d" d="M -0.5,-0.5 C 170.167,-0.5 340.833,-0.5 511.5,-0.5C 511.5,33.8333 511.5,68.1667 511.5,102.5C 505.948,98.469 500.114,94.8023 494,91.5C 493.5,105.829 493.333,120.163 493.5,134.5C 493.167,134.5 492.833,134.5 492.5,134.5C 492.888,103.167 493.221,71.8341 493.5,40.5C 493.666,32.16 493.5,23.8267 493,15.5C 488.931,10.7146 483.764,7.88124 477.5,7C 327.833,6.33333 178.167,6.33333 28.5,7C 22.34,7.8293 17.84,10.996 15,16.5C 14.5003,24.4931 14.3336,32.4931 14.5,40.5C 15.492,71.7599 15.8254,103.093 15.5,134.5C 15.1667,134.5 14.8333,134.5 14.5,134.5C 14.8326,120.151 14.4993,105.818 13.5,91.5C 9.10415,94.6962 4.43748,97.3629 -0.5,99.5C -0.5,66.1667 -0.5,32.8333 -0.5,-0.5 Z"/></g>
<g><path style="opacity:1" fill="#2e2e32" d="M 493.5,40.5 C 333.833,39.1667 174.167,39.1667 14.5,40.5C 14.3336,32.4931 14.5003,24.4931 15,16.5C 17.84,10.996 22.34,7.8293 28.5,7C 178.167,6.33333 327.833,6.33333 477.5,7C 483.764,7.88124 488.931,10.7146 493,15.5C 493.5,23.8267 493.666,32.16 493.5,40.5 Z"/></g>
<g><path style="opacity:1" fill="#404043" d="M 411.5,12.5 C 418.676,11.7944 425.343,13.2944 431.5,17C 434.368,19.7094 435.035,22.876 433.5,26.5C 430.771,30.1997 427.104,32.3664 422.5,33C 414.871,34.7315 408.038,33.2315 402,28.5C 399.177,22.9231 400.343,18.4231 405.5,15C 407.723,14.4338 409.723,13.6005 411.5,12.5 Z"/></g>
<g><path style="opacity:1" fill="#414145" d="M 460.5,12.5 C 469.091,11.5197 476.591,13.8531 483,19.5C 483.627,27.5549 479.794,32.0549 471.5,33C 462.922,35.2033 455.755,33.0366 450,26.5C 449.333,24.1667 449.333,21.8333 450,19.5C 452.998,16.2623 456.498,13.9289 460.5,12.5 Z"/></g>
<g><path style="opacity:1" fill="#aeaeae" d="M 226.5,16.5 C 227.978,16.238 229.311,16.5713 230.5,17.5C 229.833,17.8333 229.167,18.1667 228.5,18.5C 227.287,18.2528 226.62,17.5862 226.5,16.5 Z"/></g>
<g><path style="opacity:1" fill="#bdbdbd" d="M 218.5,20.5 C 217.167,20.5 215.833,20.5 214.5,20.5C 214.5,22.8333 214.5,25.1667 214.5,27.5C 213.167,27.5 211.833,27.5 210.5,27.5C 210.5,25.1667 210.5,22.8333 210.5,20.5C 209.022,20.762 207.689,20.4287 206.5,19.5C 208.5,19.1667 210.5,18.8333 212.5,18.5C 214.952,18.5391 216.952,19.2057 218.5,20.5 Z"/></g>
<g><path style="opacity:1" fill="#cbcbcb" d="M 273.5,20.5 C 277.846,20.3343 282.179,20.501 286.5,21C 288.25,22.7542 288.917,24.9208 288.5,27.5C 287.167,27.5 285.833,27.5 284.5,27.5C 283.833,20.8333 283.167,20.8333 282.5,27.5C 281.167,27.5 279.833,27.5 278.5,27.5C 278.5,25.8333 278.5,24.1667 278.5,22.5C 277.791,21.596 276.791,21.2627 275.5,21.5C 275.785,23.288 275.452,24.9547 274.5,26.5C 273.534,24.604 273.201,22.604 273.5,20.5 Z"/></g>
<g><path style="opacity:1" fill="#9b9b9c" d="M 218.5,20.5 C 218.833,20.5 219.167,20.5 219.5,20.5C 219.201,22.604 219.534,24.604 220.5,26.5C 221.452,24.9547 221.785,23.288 221.5,21.5C 223.099,21.7678 224.432,21.4345 225.5,20.5C 226.167,20.5 226.833,20.5 227.5,20.5C 227.5,22.8333 227.5,25.1667 227.5,27.5C 226.549,26.0813 226.216,24.4147 226.5,22.5C 225.167,22.5 223.833,22.5 222.5,22.5C 222.5,24.1667 222.5,25.8333 222.5,27.5C 221.167,27.5 219.833,27.5 218.5,27.5C 218.5,25.1667 218.5,22.8333 218.5,20.5 Z"/></g>
<g><path style="opacity:1" fill="#eaeaea" d="M 219.5,20.5 C 221.5,20.5 223.5,20.5 225.5,20.5C 224.432,21.4345 223.099,21.7678 221.5,21.5C 221.785,23.288 221.452,24.9547 220.5,26.5C 219.534,24.604 219.201,22.604 219.5,20.5 Z"/></g>
<g><path style="opacity:1" fill="#d5d5d5" d="M 227.5,20.5 C 228.5,20.5 229.5,20.5 230.5,20.5C 230.5,22.8333 230.5,25.1667 230.5,27.5C 229.5,27.5 228.5,27.5 227.5,27.5C 227.5,25.1667 227.5,22.8333 227.5,20.5 Z"/></g>
<g><path style="opacity:1" fill="#c9c9ca" d="M 249.5,18.5 C 252.572,18.1826 255.572,18.5159 258.5,19.5C 255.973,20.2136 253.473,20.8803 251,21.5C 250.316,22.7839 250.483,23.9505 251.5,25C 253.134,25.4935 254.801,25.6602 256.5,25.5C 256.5,24.5 256.5,23.5 256.5,22.5C 257.5,22.5 258.5,22.5 259.5,22.5C 259.714,24.1439 259.38,25.6439 258.5,27C 255.5,27.6667 252.5,27.6667 249.5,27C 245.605,24.178 245.605,21.3446 249.5,18.5 Z"/></g>
<g><path style="opacity:1" fill="#c0c0c1" d="M 262.5,20.5 C 264.857,20.3367 267.19,20.5034 269.5,21C 270.833,23 270.833,25 269.5,27C 266.854,27.4974 264.187,27.6641 261.5,27.5C 261.674,25.139 262.007,22.8056 262.5,20.5 Z"/></g>
<g><path style="opacity:1" fill="#c8c8c9" d="M 291.5,20.5 C 294.187,20.3359 296.854,20.5026 299.5,21C 300.337,22.0113 300.67,23.1779 300.5,24.5C 293.374,24.3631 293.041,25.0298 299.5,26.5C 296.833,27.8333 294.167,27.8333 291.5,26.5C 290.181,24.4684 290.181,22.4684 291.5,20.5 Z"/></g>
<g><path style="opacity:1" fill="#949495" d="M 273.5,20.5 C 273.201,22.604 273.534,24.604 274.5,26.5C 275.452,24.9547 275.785,23.288 275.5,21.5C 276.791,21.2627 277.791,21.596 278.5,22.5C 276.744,23.5521 276.077,25.2188 276.5,27.5C 275.167,27.5 273.833,27.5 272.5,27.5C 272.198,24.9407 272.532,22.6074 273.5,20.5 Z"/></g>
<g><path style="opacity:1" fill="#bababb" d="M 460.5,20.5 C 460.735,19.9033 461.235,19.5699 462,19.5C 463.396,20.3943 464.896,21.0609 466.5,21.5C 468.323,20.1551 470.323,19.6551 472.5,20C 471.167,21 469.833,22 468.5,23C 469.833,24 471.167,25 472.5,26C 470.191,26.7562 468.191,26.2562 466.5,24.5C 464.809,26.2562 462.809,26.7562 460.5,26C 461.833,25 463.167,24 464.5,23C 463.016,22.3378 461.683,21.5045 460.5,20.5 Z"/></g>
<g><path style="opacity:1" fill="#a2a2a3" d="M 411.5,24.5 C 415.555,24.1758 419.555,24.5091 423.5,25.5C 421.5,25.8333 419.5,26.1667 417.5,26.5C 415.048,26.4609 413.048,25.7943 411.5,24.5 Z"/></g>
<g><path style="opacity:1" fill="#bdbdbe" d="M 232.5,20.5 C 235.247,20.1866 237.914,20.52 240.5,21.5C 239.975,22.1924 239.308,22.6924 238.5,23C 240.592,23.9525 240.925,25.2859 239.5,27C 237.098,27.8141 234.765,27.6474 232.5,26.5C 237.682,25.224 237.682,24.5573 232.5,24.5C 232.5,23.1667 232.5,21.8333 232.5,20.5 Z"/></g>
<g><path style="opacity:1" fill="#222222" d="M 493.5,40.5 C 493.221,71.8341 492.888,103.167 492.5,134.5C 443.833,134.5 395.167,134.5 346.5,134.5C 346.5,162.167 346.5,189.833 346.5,217.5C 395.572,217.828 444.572,217.495 493.5,216.5C 493.5,265.5 493.5,314.5 493.5,363.5C 499.5,362.833 505.5,362.167 511.5,361.5C 511.5,363.167 511.5,364.833 511.5,366.5C 505.846,367.055 500.18,367.555 494.5,368C 493.536,372.066 493.203,376.233 493.5,380.5C 499.5,380.5 505.5,380.5 511.5,380.5C 511.5,382.167 511.5,383.833 511.5,385.5C 505.5,385.5 499.5,385.5 493.5,385.5C 493.822,391.358 493.489,397.025 492.5,402.5C 492.5,433.833 492.5,465.167 492.5,496.5C 333.167,496.5 173.833,496.5 14.5,496.5C 14.5,468.167 14.5,439.833 14.5,411.5C 14.8333,361.162 14.4999,310.829 13.5,260.5C 8.69749,261.865 4.03083,263.531 -0.5,265.5C -0.5,263.5 -0.5,261.5 -0.5,259.5C 4.12217,258.316 8.78884,257.316 13.5,256.5C 14.4999,215.839 14.8332,175.172 14.5,134.5C 14.8333,134.5 15.1667,134.5 15.5,134.5C 15.8254,103.093 15.492,71.7599 14.5,40.5C 174.167,39.1667 333.833,39.1667 493.5,40.5 Z"/></g>
<g><path style="opacity:1" fill="#131313" d="M 14.5,134.5 C 14.8332,175.172 14.4999,215.839 13.5,256.5C 8.78884,257.316 4.12217,258.316 -0.5,259.5C -0.5,206.167 -0.5,152.833 -0.5,99.5C 4.43748,97.3629 9.10415,94.6962 13.5,91.5C 14.4993,105.818 14.8326,120.151 14.5,134.5 Z"/></g>
<g><path style="opacity:1" fill="#333333" d="M 15.5,134.5 C 63.8333,134.5 112.167,134.5 160.5,134.5C 160.5,161.833 160.5,189.167 160.5,216.5C 112.167,216.5 63.8333,216.5 15.5,216.5C 15.5,189.167 15.5,161.833 15.5,134.5 Z"/></g>
<g><path style="opacity:1" fill="#333333" d="M 178.5,134.5 C 228.833,134.5 279.167,134.5 329.5,134.5C 329.5,161.833 329.5,189.167 329.5,216.5C 279.167,216.5 228.833,216.5 178.5,216.5C 178.5,189.167 178.5,161.833 178.5,134.5 Z"/></g>
<g><path style="opacity:1" fill="#323232" d="M 492.5,134.5 C 492.833,134.5 493.167,134.5 493.5,134.5C 493.5,161.833 493.5,189.167 493.5,216.5C 444.572,217.495 395.572,217.828 346.5,217.5C 346.5,189.833 346.5,162.167 346.5,134.5C 395.167,134.5 443.833,134.5 492.5,134.5 Z"/></g>
<g><path style="opacity:1" fill="#72797e" d="M 268.5,164.5 C 265.162,164.065 262.162,164.732 259.5,166.5C 259.414,165.504 259.748,164.671 260.5,164C 263.367,163.199 266.034,163.366 268.5,164.5 Z"/></g>
<g><path style="opacity:1" fill="#87a5c1" d="M 239.5,164.5 C 242.678,167.845 245.678,171.345 248.5,175C 248.164,176.03 247.497,176.53 246.5,176.5C 244.541,172.019 241.541,168.185 237.5,165C 238.094,164.536 238.761,164.369 239.5,164.5 Z"/></g>
<g><path style="opacity:1" fill="#dfe0de" d="M 239.5,164.5 C 241.857,164.337 244.19,164.503 246.5,165C 247.381,165.708 248.047,166.542 248.5,167.5C 249.648,170.087 251.315,171.087 253.5,170.5C 255.512,169.078 257.512,167.745 259.5,166.5C 262.162,164.732 265.162,164.065 268.5,164.5C 264.819,167.847 261.486,171.514 258.5,175.5C 259.897,177.237 261.564,178.571 263.5,179.5C 265.091,182.431 267.091,185.098 269.5,187.5C 266.428,187.817 263.428,187.484 260.5,186.5C 258.183,183.683 255.683,181.016 253,178.5C 249.785,180.714 247.285,183.548 245.5,187C 242.854,187.497 240.187,187.664 237.5,187.5C 240.167,184.5 242.833,181.5 245.5,178.5C 245.833,177.833 246.167,177.167 246.5,176.5C 247.497,176.53 248.164,176.03 248.5,175C 245.678,171.345 242.678,167.845 239.5,164.5 Z"/></g>
<g><path style="opacity:1" fill="#e1e1e0" d="M 102.5,171.5 C 102.658,174.902 102.324,178.236 101.5,181.5C 92.2456,187.942 82.2456,189.108 71.5,185C 70.2899,183.961 69.2899,182.794 68.5,181.5C 67.045,177.021 67.3784,172.688 69.5,168.5C 70.0577,167.21 71.0577,166.377 72.5,166C 79.4516,164.603 86.4516,164.27 93.5,165C 97.569,165.931 100.569,168.098 102.5,171.5 Z"/></g>
<g><path style="opacity:1" fill="#dfdfdd" d="M 438.5,169.5 C 440.365,175.135 439.365,180.135 435.5,184.5C 428.787,187.237 421.787,188.07 414.5,187C 412.509,186.626 410.842,185.793 409.5,184.5C 404.545,179.134 404.211,173.467 408.5,167.5C 409.058,166.21 410.058,165.377 411.5,165C 419.663,163.95 427.663,164.617 435.5,167C 436.942,167.377 437.942,168.21 438.5,169.5 Z"/></g>
<g><path style="opacity:1" fill="#977558" d="M 248.5,167.5 C 250.411,168.075 252.078,169.075 253.5,170.5C 251.315,171.087 249.648,170.087 248.5,167.5 Z"/></g>
<g><path style="opacity:1" fill="#3a3839" d="M 93.5,171.5 C 94.7335,174.465 94.7335,177.465 93.5,180.5C 88.2681,183.825 82.9348,184.159 77.5,181.5C 74.8574,178.766 73.8574,175.433 74.5,171.5C 77.0792,169.009 80.2459,168.009 84,168.5C 87.7971,168.004 90.9637,169.004 93.5,171.5 Z"/></g>
<g><path style="opacity:1" fill="#393738" d="M 430.5,170.5 C 431.833,173.833 431.833,177.167 430.5,180.5C 425.067,184.473 419.567,184.473 414,180.5C 411.731,176.286 412.231,172.453 415.5,169C 420.785,167.955 425.785,168.455 430.5,170.5 Z"/></g>
<g><path style="opacity:1" fill="#7a99ba" d="M 69.5,168.5 C 67.3784,172.688 67.045,177.021 68.5,181.5C 65.1666,177.99 64.6666,173.99 67,169.5C 67.6708,168.748 68.5041,168.414 69.5,168.5 Z"/></g>
<g><path style="opacity:1" fill="#9cb8d0" d="M 408.5,167.5 C 404.211,173.467 404.545,179.134 409.5,184.5C 403.569,181.023 402.069,176.023 405,169.5C 405.816,168.177 406.983,167.511 408.5,167.5 Z"/></g>
<g><path style="opacity:1" fill="#cdbb98" d="M 74.5,171.5 C 73.8574,175.433 74.8574,178.766 77.5,181.5C 72.4512,179.297 71.4512,175.963 74.5,171.5 Z"/></g>
<g><path style="opacity:1" fill="#89aac3" d="M 93.5,171.5 C 94.7479,172.334 95.4146,173.667 95.5,175.5C 95.3333,176.833 95.1667,178.167 95,179.5C 94.6174,180.056 94.1174,180.389 93.5,180.5C 94.7335,177.465 94.7335,174.465 93.5,171.5 Z"/></g>
<g><path style="opacity:1" fill="#74533c" d="M 102.5,171.5 C 103.117,171.611 103.617,171.944 104,172.5C 104.818,175.227 104.652,177.894 103.5,180.5C 102.817,180.863 102.15,181.196 101.5,181.5C 102.324,178.236 102.658,174.902 102.5,171.5 Z"/></g>
<g><path style="opacity:1" fill="#a98567" d="M 438.5,169.5 C 439.458,169.953 440.292,170.619 441,171.5C 441.701,174.928 441.368,178.262 440,181.5C 438.871,183.141 437.371,184.141 435.5,184.5C 439.365,180.135 440.365,175.135 438.5,169.5 Z"/></g>
<g><path style="opacity:1" fill="#546e96" d="M 430.5,170.5 C 431.117,170.611 431.617,170.944 432,171.5C 432.667,174.167 432.667,176.833 432,179.5C 431.617,180.056 431.117,180.389 430.5,180.5C 431.833,177.167 431.833,173.833 430.5,170.5 Z"/></g>
<g><path style="opacity:1" fill="#a68668" d="M 263.5,179.5 C 266.297,181.795 268.964,184.295 271.5,187C 270.906,187.464 270.239,187.631 269.5,187.5C 267.091,185.098 265.091,182.431 263.5,179.5 Z"/></g>
<g><path style="opacity:1" fill="#809fbc" d="M 245.5,178.5 C 242.833,181.5 240.167,184.5 237.5,187.5C 236.475,187.103 236.308,186.437 237,185.5C 239.436,182.553 242.269,180.22 245.5,178.5 Z"/></g>
<g><path style="opacity:1" fill="#323232" d="M 15.5,227.5 C 64.1667,227.5 112.833,227.5 161.5,227.5C 161.5,254.833 161.5,282.167 161.5,309.5C 112.833,309.5 64.1667,309.5 15.5,309.5C 15.5,282.167 15.5,254.833 15.5,227.5 Z"/></g>
<g><path style="opacity:1" fill="#333333" d="M 178.5,227.5 C 228.833,227.5 279.167,227.5 329.5,227.5C 329.5,254.833 329.5,282.167 329.5,309.5C 279.167,309.5 228.833,309.5 178.5,309.5C 178.5,282.167 178.5,254.833 178.5,227.5 Z"/></g>
<g><path style="opacity:1" fill="#333333" d="M 347.5,227.5 C 395.833,227.5 444.167,227.5 492.5,227.5C 492.5,254.833 492.5,282.167 492.5,309.5C 444.167,309.5 395.833,309.5 347.5,309.5C 347.5,282.167 347.5,254.833 347.5,227.5 Z"/></g>
<g><path style="opacity:1" fill="#5d6d81" d="M 245.5,257.5 C 243.143,257.337 240.81,257.503 238.5,258C 240.041,259.371 241.375,260.871 242.5,262.5C 239.931,261.604 237.931,259.938 236.5,257.5C 239.645,256.197 242.645,256.197 245.5,257.5 Z"/></g>
<g><path style="opacity:1" fill="#e0dfdc" d="M 245.5,257.5 C 248.457,259.289 250.957,261.622 253,264.5C 254.145,263.364 255.312,262.364 256.5,261.5C 258.544,260.969 260.211,259.802 261.5,258C 263.81,257.503 266.143,257.337 268.5,257.5C 266.138,260.192 263.804,262.859 261.5,265.5C 259.748,265.418 258.748,266.251 258.5,268C 258.836,269.03 259.503,269.53 260.5,269.5C 263.098,273.438 266.098,277.105 269.5,280.5C 266.428,280.817 263.428,280.484 260.5,279.5C 258.86,276.027 256.36,273.36 253,271.5C 250.843,274.656 248.343,277.489 245.5,280C 242.854,280.497 240.187,280.664 237.5,280.5C 240.57,277.436 243.237,274.103 245.5,270.5C 246.167,270.5 246.5,270.167 246.5,269.5C 248.225,269.157 248.725,268.157 248,266.5C 246.549,264.536 244.716,263.203 242.5,262.5C 241.375,260.871 240.041,259.371 238.5,258C 240.81,257.503 243.143,257.337 245.5,257.5 Z"/></g>
<g><path style="opacity:1" fill="#7f94a7" d="M 268.5,257.5 C 266.143,257.337 263.81,257.503 261.5,258C 260.211,259.802 258.544,260.969 256.5,261.5C 259.386,256.647 263.386,255.314 268.5,257.5 Z"/></g>
<g><path style="opacity:1" fill="#131313" d="M 14.5,411.5 C 9.453,411.663 4.453,411.329 -0.5,410.5C -0.5,362.167 -0.5,313.833 -0.5,265.5C 4.03083,263.531 8.69749,261.865 13.5,260.5C 14.4999,310.829 14.8333,361.162 14.5,411.5 Z"/></g>
<g><path style="opacity:1" fill="#7593b3" d="M 242.5,262.5 C 244.716,263.203 246.549,264.536 248,266.5C 248.725,268.157 248.225,269.157 246.5,269.5C 246.039,266.697 244.705,264.363 242.5,262.5 Z"/></g>
<g><path style="opacity:1" fill="#ac8a68" d="M 261.5,265.5 C 260.766,266.708 260.433,268.041 260.5,269.5C 259.503,269.53 258.836,269.03 258.5,268C 258.748,266.251 259.748,265.418 261.5,265.5 Z"/></g>
<g><path style="opacity:1" fill="#ad8e6e" d="M 260.5,269.5 C 263.797,272.296 266.964,275.296 270,278.5C 270.692,279.437 270.525,280.103 269.5,280.5C 266.098,277.105 263.098,273.438 260.5,269.5 Z"/></g>
<g><path style="opacity:1" fill="#83a2bd" d="M 245.5,270.5 C 243.237,274.103 240.57,277.436 237.5,280.5C 236.475,280.103 236.308,279.437 237,278.5C 239.703,275.629 242.536,272.962 245.5,270.5 Z"/></g>
<g><path style="opacity:1" fill="#333333" d="M 15.5,320.5 C 64.1667,320.5 112.833,320.5 161.5,320.5C 161.5,347.833 161.5,375.167 161.5,402.5C 112.833,402.5 64.1667,402.5 15.5,402.5C 15.5,375.167 15.5,347.833 15.5,320.5 Z"/></g>
<g><path style="opacity:1" fill="#333333" d="M 178.5,320.5 C 229.167,320.5 279.833,320.5 330.5,320.5C 330.5,347.833 330.5,375.167 330.5,402.5C 279.833,402.5 229.167,402.5 178.5,402.5C 178.5,375.167 178.5,347.833 178.5,320.5 Z"/></g>
<g><path style="opacity:1" fill="#333333" d="M 492.5,402.5 C 443.833,402.5 395.167,402.5 346.5,402.5C 346.5,375.167 346.5,347.833 346.5,320.5C 395.167,320.5 443.833,320.5 492.5,320.5C 492.5,347.833 492.5,375.167 492.5,402.5 Z"/></g>
<g><path style="opacity:1" fill="#141414" d="M 511.5,102.5 C 511.5,188.833 511.5,275.167 511.5,361.5C 505.5,362.167 499.5,362.833 493.5,363.5C 493.5,314.5 493.5,265.5 493.5,216.5C 493.5,189.167 493.5,161.833 493.5,134.5C 493.333,120.163 493.5,105.829 494,91.5C 500.114,94.8023 505.948,98.469 511.5,102.5 Z"/></g>
<g><path style="opacity:1" fill="#958577" d="M 429.5,350.5 C 432.355,349.197 435.355,349.197 438.5,350.5C 437.479,352.188 436.145,353.521 434.5,354.5C 434.511,352.983 435.177,351.816 436.5,351C 434.19,350.503 431.857,350.337 429.5,350.5 Z"/></g>
<g><path style="opacity:1" fill="#5b6779" d="M 77.5,350.5 C 74.8127,350.336 72.146,350.503 69.5,351C 70.7101,352.039 71.7101,353.206 72.5,354.5C 70.2712,353.945 68.6046,352.611 67.5,350.5C 70.9798,349.194 74.3132,349.194 77.5,350.5 Z"/></g>
<g><path style="opacity:1" fill="#dedfde" d="M 77.5,350.5 C 79.8503,352.604 82.1837,354.604 84.5,356.5C 86.5032,355.142 88.5032,353.809 90.5,352.5C 93.1769,350.568 96.1769,350.068 99.5,351C 96.1719,354.328 92.8386,357.661 89.5,361C 89.8361,362.03 90.5028,362.53 91.5,362.5C 94.0613,364.64 96.3946,366.973 98.5,369.5C 98.4142,370.496 98.7476,371.329 99.5,372C 96.2281,372.788 93.2281,372.288 90.5,370.5C 88.8184,367.985 86.6517,365.985 84,364.5C 80.6825,366.651 77.8491,369.317 75.5,372.5C 73.2573,373.474 70.924,373.808 68.5,373.5C 68.3505,372.448 68.5172,371.448 69,370.5C 71.312,368.132 73.812,366.132 76.5,364.5C 80.3958,362.241 80.3958,360.241 76.5,358.5C 75.5,356.833 74.1667,355.5 72.5,354.5C 71.7101,353.206 70.7101,352.039 69.5,351C 72.146,350.503 74.8127,350.336 77.5,350.5 Z"/></g>
<g><path style="opacity:1" fill="#66778d" d="M 414.5,350.5 C 412.143,350.337 409.81,350.503 407.5,351C 409.041,352.371 410.375,353.871 411.5,355.5C 408.931,354.604 406.931,352.938 405.5,350.5C 408.645,349.197 411.645,349.197 414.5,350.5 Z"/></g>
<g><path style="opacity:1" fill="#e1e3e2" d="M 414.5,350.5 C 416.502,353.334 419.002,355.667 422,357.5C 424.37,354.961 426.87,352.628 429.5,350.5C 431.857,350.337 434.19,350.503 436.5,351C 435.177,351.816 434.511,352.983 434.5,354.5C 432.5,354.5 431.5,355.5 431.5,357.5C 428.665,358.069 426.999,359.736 426.5,362.5C 427.5,362.5 428.5,362.5 429.5,362.5C 431.5,366.5 434.5,369.5 438.5,371.5C 436.721,373.344 434.388,374.01 431.5,373.5C 430.415,371.413 428.749,370.08 426.5,369.5C 425.207,367.704 423.707,366.037 422,364.5C 420.242,366.083 418.742,367.75 417.5,369.5C 415.379,370.943 413.046,371.943 410.5,372.5C 408.97,372.36 407.97,371.693 407.5,370.5C 411.586,368.25 414.92,365.084 417.5,361C 416.272,358.27 414.272,356.436 411.5,355.5C 410.375,353.871 409.041,352.371 407.5,351C 409.81,350.503 412.143,350.337 414.5,350.5 Z"/></g>
<g><path style="opacity:1" fill="#dcdede" d="M 270.5,355.5 C 271.09,360.6 270.09,365.267 267.5,369.5C 259.681,373.682 251.347,374.516 242.5,372C 235.812,368.441 233.645,362.941 236,355.5C 241.01,351.286 246.844,349.619 253.5,350.5C 260.023,349.566 265.69,351.233 270.5,355.5 Z"/></g>
<g><path style="opacity:1" fill="#88705e" d="M 91.5,362.5 C 90.5028,362.53 89.8361,362.03 89.5,361C 92.8386,357.661 96.1719,354.328 99.5,351C 96.1769,350.068 93.1769,350.568 90.5,352.5C 90.4142,351.504 90.7476,350.671 91.5,350C 94.8823,349.176 98.2156,349.343 101.5,350.5C 97.7735,354.222 94.4402,358.222 91.5,362.5 Z"/></g>
<g><path style="opacity:1" fill="#3a3838" d="M 261.5,356.5 C 262.265,359.096 262.599,361.763 262.5,364.5C 258.916,369.047 254.25,370.547 248.5,369C 246.907,368.051 245.574,366.885 244.5,365.5C 243.735,362.904 243.401,360.237 243.5,357.5C 246.079,355.009 249.246,354.009 253,354.5C 256.148,354.278 258.981,354.945 261.5,356.5 Z"/></g>
<g><path style="opacity:1" fill="#6988a9" d="M 76.5,358.5 C 80.3958,360.241 80.3958,362.241 76.5,364.5C 76.5106,362.983 77.1772,361.816 78.5,361C 77.6195,360.292 76.9528,359.458 76.5,358.5 Z"/></g>
<g><path style="opacity:1" fill="#b49976" d="M 243.5,357.5 C 243.401,360.237 243.735,362.904 244.5,365.5C 242.974,364.508 242.307,363.008 242.5,361C 242.514,359.615 242.848,358.449 243.5,357.5 Z"/></g>
<g><path style="opacity:1" fill="#425a88" d="M 261.5,356.5 C 263.026,357.492 263.693,358.992 263.5,361C 263.486,362.385 263.152,363.551 262.5,364.5C 262.599,361.763 262.265,359.096 261.5,356.5 Z"/></g>
<g><path style="opacity:1" fill="#b9987a" d="M 270.5,355.5 C 272.427,358.137 272.927,361.137 272,364.5C 270.956,365.623 270.29,366.956 270,368.5C 269.329,369.252 268.496,369.586 267.5,369.5C 270.09,365.267 271.09,360.6 270.5,355.5 Z"/></g>
<g><path style="opacity:1" fill="#bca184" d="M 431.5,357.5 C 430.058,358.82 429.392,360.486 429.5,362.5C 428.5,362.5 427.5,362.5 426.5,362.5C 426.999,359.736 428.665,358.069 431.5,357.5 Z"/></g>
<g><path style="opacity:1" fill="#a58565" d="M 429.5,362.5 C 432.833,365.167 435.833,368.167 438.5,371.5C 434.5,369.5 431.5,366.5 429.5,362.5 Z"/></g>
<g><path style="opacity:1" fill="#87a4c0" d="M 411.5,355.5 C 414.272,356.436 416.272,358.27 417.5,361C 414.92,365.084 411.586,368.25 407.5,370.5C 410.316,367.513 412.982,364.346 415.5,361C 414.35,359.019 413.016,357.186 411.5,355.5 Z"/></g>
<g><path style="opacity:1" fill="#141414" d="M 511.5,366.5 C 511.5,371.167 511.5,375.833 511.5,380.5C 505.5,380.5 499.5,380.5 493.5,380.5C 493.203,376.233 493.536,372.066 494.5,368C 500.18,367.555 505.846,367.055 511.5,366.5 Z"/></g>
<g><path style="opacity:1" fill="#526a8b" d="M 426.5,369.5 C 428.749,370.08 430.415,371.413 431.5,373.5C 429.251,372.92 427.585,371.587 426.5,369.5 Z"/></g>
<g><path style="opacity:1" fill="#a3a2a1" d="M 98.5,369.5 C 102.877,372.241 102.377,373.574 97,373.5C 94.0405,373.959 91.8738,372.959 90.5,370.5C 93.2281,372.288 96.2281,372.788 99.5,372C 98.7476,371.329 98.4142,370.496 98.5,369.5 Z"/></g>
<g><path style="opacity:1" fill="#a09892" d="M 417.5,369.5 C 414.449,373.526 410.449,374.526 405.5,372.5C 405.855,371.478 406.522,370.811 407.5,370.5C 407.97,371.693 408.97,372.36 410.5,372.5C 413.046,371.943 415.379,370.943 417.5,369.5 Z"/></g>
<g><path style="opacity:1" fill="#191919" d="M 511.5,385.5 C 511.5,427.5 511.5,469.5 511.5,511.5C 340.833,511.5 170.167,511.5 -0.5,511.5C -0.5,477.833 -0.5,444.167 -0.5,410.5C 4.453,411.329 9.453,411.663 14.5,411.5C 14.5,439.833 14.5,468.167 14.5,496.5C 173.833,496.5 333.167,496.5 492.5,496.5C 492.5,465.167 492.5,433.833 492.5,402.5C 493.489,397.025 493.822,391.358 493.5,385.5C 499.5,385.5 505.5,385.5 511.5,385.5 Z"/></g>
</svg>
